# xmcd
# Track frame offsets:
# 150
# 11419
# 23536
# 36257
# 50627
# 59745
# 72336
# 89008
# 101962
# 116920
# 128026
# 146706
# 161452
# 175519
#
# Disc length: 2474 seconds
# Revision: 0
# Processed by: cddbd v1.4PL0 Copyright (c) Steve Scherf et al.
# Submitted via: VisiTrax 2.9.3.171 - For more info visit www.synapsa.com
#
DISCID=c709a80e
DTITLE=The Fabulous Thunderbirds - Butt Rockin'
DYEAR=1900
DGENRE=
TTITLE0=I Believe I'm in Love
TTITLE1=One's Too Many (And a Hundred Ain't Enough)
TTITLE2=Give Me All Your Lovin'
TTITLE3=Roll, Roll, Roll
TTITLE4=Cherry Pink and Apple Blossom White
TTITLE5=I Hear You Knockin'
TTITLE6=Tip On In
TTITLE7=I'm Sorry
TTITLE8=Mathilda
TTITLE9=Tell Me Why
TTITLE10=In Orbit
TTITLE11=Found a New Love
TTITLE12=I Got Eyes
TTITLE13=Someday You'll Want Me
EXTD=
EXTT0=
EXTT1=
EXTT2=
EXTT3=
EXTT4=
EXTT5=
EXTT6=
EXTT7=
EXTT8=
EXTT9=
EXTT10=
EXTT11=
EXTT12=
EXTT13=
PLAYORDER=
